<svg id="Capa_1" data-name="Capa 1" xmlns="http://www.w3.org/2000/svg" viewBox="0 0 1000 156"><defs><style>.cls-1{fill:#4d4d4d;}</style></defs><title>Mesa de trabajo 1</title><path class="cls-1" d="M755.91,16.74l-10.06-.61c1.39-1.56,2-2.83,2.6-2.82,24.95.47,50.27-1.46,74.74,2.25,32.78,5,51.73,31.49,52.11,66,.43,39.61-27.33,68.15-66.91,68.57-19.11.19-38.23,0-57.34,0-1.39,0-2.77-.25-4.16-.38-.09-.67-.19-1.34-.29-2l9.31-1.48Zm21.16,65.33h0c0,15.8-.14,31.6,0,47.4.13,11.16,6,16.95,17,17.28,4.59.14,9.2.17,13.78,0,16.9-.66,29.47-8.48,36.82-23.7,11.78-24.41,11.77-49.73,3.45-75-5.52-16.75-16.76-28.38-35.12-31-5.41-.78-11-.53-16.5-.49-13.12.1-19.46,6.51-19.52,19.77C777,51.57,777.07,66.82,777.07,82.07Z"/><path class="cls-1" d="M598.58,82c.24,48-41.78,74.47-80.79,69.67-22.52-2.77-41.67-12.12-54.84-31-22.39-32.16-13.37-75.25,19.71-96.53,30.15-19.39,68.15-16.74,94.51,6.59C590.74,42.65,598.56,61.41,598.58,82Zm-21.3-.16c.05-13.54-1.91-26.68-7.53-39.16-16.54-36.71-63.17-35.08-83-9.4-18.79,24.38-19.66,70.33-1.42,95.06,11.48,15.54,27.29,22.06,46.15,20.31,19.14-1.76,32-12.61,39.3-30.19C575.69,106.68,577.34,94.39,577.28,81.79Z"/><path class="cls-1" d="M.35,147.73l9.36-1.43V17.08L.77,15.65c.11-.64.23-1.29.35-1.94h96.1c1.56,14.51,3.15,29.22,4.74,43.93l-2.17.49a35.34,35.34,0,0,1-1.67-5c-2.44-13.44-6.9-25.87-19.91-32.55C66,14.32,52.83,15.18,40,18.32c-6.7,1.65-8.87,8-9.08,14.38-.32,9.37-.34,18.77,0,28.14s4.75,14.48,14,15.54A120.36,120.36,0,0,0,68,76.69c9-.71,12.65-5.22,13.54-14.45a10.06,10.06,0,0,1,1.84-4.88c3.07,9.52,1.84,40.62-1.29,42.38-.39-2.81-.58-5.5-1.16-8.1-1.58-7-5.53-10.68-12.56-11-7.53-.32-15.1-.38-22.62,0-8.9.48-14.45,6.16-14.77,15.45q-.59,17.37,0,34.76c.33,9.91,6.26,15.46,16.21,15.82a175.21,175.21,0,0,0,18.76,0c14.27-1,24.73-8.29,30.34-21.29,3.53-8.18,5.43-17.06,8.07-25.62.47-1.54,1-3.07,1.47-4.6l2,.27a30.48,30.48,0,0,1,0,4.78c-2.4,15.23-4.94,30.44-7.28,45.68-.42,2.68-.88,4.34-4.21,4.33-31.28-.11-62.55-.07-93.82-.1a6.37,6.37,0,0,1-1.56-.39C.68,149.06.51,148.4.35,147.73Z"/><path class="cls-1" d="M892.32,147.89l9.3-1.66V17.2l-8.75-1.83.29-1.81h96c1.6,14.55,3.22,29.29,4.83,44l-2,.55a25.73,25.73,0,0,1-1.81-4.78c-1.75-10.53-4.78-20.7-13.15-27.76-4.46-3.76-10.23-7.07-15.85-8.08-8-1.44-16.51-1.26-24.69-.51-8.56.8-13.18,6.52-13.5,15.45-.35,9.55-.38,19.14,0,28.69.36,9,4.76,14.15,13.7,15.16a121.16,121.16,0,0,0,23.63.32c8.92-.75,12.38-5.27,13.25-14.71a29.48,29.48,0,0,1,1.23-4.69l1.47.18a6.66,6.66,0,0,1,.62,1.84c0,12.32.1,24.65,0,37,0,1.16-1.05,2.3-1.61,3.45-.58-1.15-1.54-2.25-1.67-3.45-1.24-11.8-5.06-15.5-16.85-15.74-5.88-.12-11.78-.13-17.66.1-10,.4-15.81,5.9-16.12,15.86-.36,11.4-.31,22.82,0,34.21.23,8.81,4.56,14.73,12.74,15.46a113.1,113.1,0,0,0,28-.51c15-2.44,23-13.47,27.64-27,2.19-6.4,3.5-13.09,5.28-19.63a31.8,31.8,0,0,1,1.58-3.78l1.89.47c-.39,3.45-.64,6.92-1.18,10.35-2.11,13.42-4.21,26.84-6.62,40.21-.27,1.5-2.45,3.81-3.75,3.82-31.46.2-62.91.13-94.37.09a4.63,4.63,0,0,1-1.45-.55C892.53,149,892.42,148.43,892.32,147.89Z"/><path class="cls-1" d="M433.66,59.69H409.5c-1.29-6.09-1.81-12.22-3.92-17.74-6-15.67-17.47-25.46-34.35-27.19-17.13-1.76-30.78,5.45-41,19.06-7.94,10.58-11.65,22.86-13,35.83-1.76,17.42-.5,34.52,7.24,50.62,11,22.8,35.21,33.69,58.89,26.5,12.77-3.87,21.34-12.86,27.59-24,4.74-8.45,8.28-17.56,12.45-26.34a9.28,9.28,0,0,1,3.7-4c-1.52,14-6.75,27.6.15,41.14-30.47,18.29-64.37,27.4-99.17,8C304.27,128.24,295,106.3,295.36,79.71,296,32.82,337,6.09,378.7,11.74c18.84,2.55,35.15,9.79,45.61,26.39C428.2,44.32,430.26,51.68,433.66,59.69Z"/><path class="cls-1" d="M716.61,17.29c-3.11-2.1-7.38,1.27-9.89-3.7h22.85c.13.64.27,1.28.41,1.92l-9.54,1.61v133c-5.05,0-9.46.38-13.74-.19-1.67-.22-3.46-2.33-4.53-4Q670.85,96.61,639.7,47.18c-2.12-3.35-4.56-6.5-7-10-2.85,3.89-4.1,89.93-2,109.19l9.59,1.12c-.07.67-.14,1.33-.22,2H616.8c2.3-4.82,6.54-1.41,10.1-3.64v-4.57q0-52.43,0-104.86a37.66,37.66,0,0,0-.48-7.13c-1.57-8.18-5.37-11.59-13.66-12.76a36.5,36.5,0,0,1-4.42-1.18l.18-1.7a39.31,39.31,0,0,1,4.43-.52c8.28,0,16.57.22,24.84-.13,3.88-.16,5.89,1.36,7.84,4.46q30.35,48.31,61,96.46c2.07,3.25,4.73,6.12,7.12,9.17l1.89-.63c.47-2.58,1.33-5.16,1.34-7.74q.15-48,.07-96A5.6,5.6,0,0,0,716.61,17.29Z"/><path class="cls-1" d="M224.36,101.81c-1.41,16-2.81,31.93-4.22,48.07H129.36c-.15-.62-.29-1.24-.44-1.86l9.57-1.86V16.89l-10.1-.83c2.21-3.23,36.87-4.29,44.56-1.93.08.52.16,1,.25,1.56L159.59,17c-.09,1.77-.27,3.7-.27,5.64q0,50.48,0,100.94c0,.36,0,.73,0,1.1.17,17.43,4.94,21.8,22.4,22.27,22,.58,31.68-3.32,37.76-33.79l2.34-11.79Z"/></svg>